Coordinates
version=1
nRows=11
nColumns=63
inDegrees=yes

Units are S.I. units (second, meters, Newtons, ...)
If the header above contains a line with 'inDegrees', this indicates whether rotational values are in degrees (yes) or radians (no).

endheader
time	pelvis_tilt	pelvis_list	pelvis_rotation	pelvis_tx	pelvis_ty	pelvis_tz	hip_flexion_r	hip_adduction_r	hip_rotation_r	knee_angle_r	knee_angle_r_beta	ankle_angle_r	subtalar_angle_r	mtp_angle_r	hip_flexion_l	hip_adduction_l	hip_rotation_l	knee_angle_l	knee_angle_l_beta	ankle_angle_l	subtalar_angle_l	mtp_angle_l	L5_S1_Flex_Ext	L5_S1_Lat_Bending	L5_S1_axial_rotation	L4_L5_Flex_Ext	L4_L5_Lat_Bending	L4_L5_axial_rotation	L3_L4_Flex_Ext	L3_L4_Lat_Bending	L3_L4_axial_rotation	L2_L3_Flex_Ext	L2_L3_Lat_Bending	L2_L3_axial_rotation	L1_L2_Flex_Ext	L1_L2_Lat_Bending	L1_L2_axial_rotation	L1_T12_Flex_Ext	L1_T12_Lat_Bending	L1_T12_axial_rotation	Abs_r3	Abs_r2	Abs_r1	Abs_t1	Abs_t2	neck_flexion	neck_bending	neck_rotation	arm_flex_r	arm_add_r	arm_rot_r	elbow_flex_r	pro_sup_r	wrist_flex_r	wrist_dev_r	arm_flex_l	arm_add_l	arm_rot_l	elbow_flex_l	pro_sup_l	wrist_flex_l	wrist_dev_l
      0.00000000	     -4.20597876	     -1.82808597	     85.17084443	      0.21204373	      0.82726331	      0.57481485	      7.28205869	     -4.58124046	     -9.92525037	     12.61363389	      0.22014944	     42.54630443	     16.31725524	      0.00000000	      6.44016199	      4.54597137	     14.50025794	      4.46734631	      0.07796990	     36.82451872	    -17.50957711	      0.00000000	      0.35079692	     -0.51994401	      0.59816099	      0.65146495	     -0.69152553	      0.63554605	      0.57632425	     -1.26419186	      0.63554605	      0.40092580	     -1.26419186	      0.52339087	      0.32575002	     -1.06026982	      0.48600581	      0.20044536	     -0.80539327	      0.44862074	      2.50570729	     -5.88171060	      3.32679199	      0.00000000	      0.00000000	     25.83413311	      6.94376204	      3.01630919	     30.43061833	     -9.66770885	     78.92966829	     48.56737146	     82.50203816	     11.78661595	      7.51709008	     24.72180518	    -13.02634909	     58.02474415	     55.09133018	     63.70679176	     17.29857952	     22.05173823
      0.01724138	     -4.09899619	     -1.88914377	     84.70244499	      0.21219922	      0.82682588	      0.57506226	      7.00160966	     -4.28709240	     -8.89118747	     11.63520498	      0.20307264	     42.15242122	     15.90370721	      0.00000000	      6.51216262	      4.39629255	     13.53582615	      4.51436587	      0.07879055	     36.23146203	    -17.13429592	      0.00000000	      0.32895804	     -0.50311861	      0.69441095	      0.61090798	     -0.66914775	      0.73781163	      0.54044517	     -1.22328259	      0.73781163	      0.37596615	     -1.22328259	      0.60760958	      0.30547044	     -1.02595947	      0.56420889	      0.18796662	     -0.77933073	      0.52080821	      2.34971439	     -5.69137833	      3.86210537	      0.00000000	      0.00000000	     26.24279741	      7.22626538	      3.54425398	     30.10740665	    -10.23747121	     78.08194276	     49.20761915	     81.16730273	     11.97966012	      7.12066520	     24.77492108	    -12.56853373	     57.32456971	     55.10941889	     60.75388406	     16.12898972	     23.49543838
      0.03448276	     -4.05904368	     -1.97812101	     84.47886926	      0.21219557	      0.82638900	      0.57528896	      6.78451235	     -4.08102180	     -7.76220560	     10.85842133	      0.18951520	     41.77471013	     14.97730169	      0.00000000	      6.63276335	      4.33973813	     13.13978748	      4.61420542	      0.08053308	     35.88740334	    -16.96953090	      0.00000000	      0.32499337	     -0.49612585	      0.73320331	      0.60354518	     -0.65984738	      0.77902851	      0.53393161	     -1.20628040	      0.77902851	      0.37143492	     -1.20628040	      0.64155289	      0.30178884	     -1.01169984	      0.59572769	      0.18570121	     -0.76849894	      0.54990248	      2.32139513	     -5.61227486	      4.07785682	      0.00000000	      0.00000000	     26.45306807	      7.44116184	      3.82043115	     30.15800188	    -10.49357377	     77.93932890	     49.54478056	     81.22584591	     12.38789463	      6.84731469	     25.04377284	    -12.40311079	     57.40736732	     55.15876730	     58.08914640	     15.00889842	     24.31155499
      0.05172414	     -4.02525254	     -2.02585156	     84.26252820	      0.21250302	      0.82605800	      0.57537687	      6.49926477	     -3.75957050	     -5.20881001	     10.06596716	      0.17568427	     41.12628353	     12.28028658	      0.00000000	      6.70733106	      4.27989534	     12.85911447	      4.74967551	      0.08289748	     35.83418761	    -16.85723915	      0.00000000	      0.32364094	     -0.49340718	      0.76254117	      0.60103360	     -0.65623155	      0.81019999	      0.53170971	     -1.19967021	      0.81019999	      0.36988923	     -1.19967021	      0.66722352	      0.30053298	     -1.00615592	      0.61956470	      0.18492844	     -0.76428772	      0.57190588	      2.31173490	     -5.58152067	      4.24102522	      0.00000000	      0.00000000	     26.57334815	      7.59536878	      3.95886917	     30.19374898	    -10.56336664	     77.82060059	     49.76617822	     80.74126743	     12.55280350	      7.40288341	     25.01865166	    -12.26182270	     56.76765872	     55.22842544	     57.60994316	     14.76782781	     25.02555503
      0.06896552	     -4.03784466	     -2.05360187	     84.18593028	      0.21245829	      0.82578447	      0.57561392	      6.40438406	     -3.81513750	     -5.65774314	      9.82219002	      0.17142956	     41.05192765	     13.00231245	      0.00000000	      6.77251538	      4.31202649	     13.06880983	      4.89504168	      0.08543459	     35.85470894	    -17.05878039	      0.00000000	      0.32538379	     -0.49415826	      0.76931045	      0.60427025	     -0.65723049	      0.81739235	      0.53457304	     -1.20149640	      0.81739235	      0.37188114	     -1.20149640	      0.67314664	      0.30215139	     -1.00768753	      0.62506474	      0.18592430	     -0.76545115	      0.57698284	      2.32418391	     -5.59001711	      4.27867392	      0.00000000	      0.00000000	     26.59772737	      7.59409074	      3.89617500	     30.49574944	    -10.49487830	     78.22366869	     49.60876998	     81.69776672	     12.76981966	      6.76527344	     25.25370032	    -12.23886011	     56.92674219	     55.10920417	     58.18985054	     14.70382144	     24.32631761
      0.08620690	     -4.07934568	     -2.08779024	     84.33419784	      0.21226191	      0.82554564	      0.57586090	      6.26460606	     -3.80379069	     -5.12246537	      9.55088221	      0.16669434	     40.77242504	     12.09767378	      0.00000000	      6.90314292	      4.40010532	     13.34278225	      5.12187882	      0.08939365	     35.99488710	    -17.16043053	      0.00000000	      0.33000164	     -0.49877925	      0.74019976	      0.61284605	     -0.66337640	      0.78646224	      0.54215970	     -1.21273186	      0.78646224	      0.37715888	     -1.21273186	      0.64767479	      0.30643952	     -1.01711064	      0.60141230	      0.18856294	     -0.77260905	      0.55514982	      2.35716872	     -5.64229059	      4.11676898	      0.00000000	      0.00000000	     26.60108404	      7.53671861	      3.83938375	     30.70428672	    -10.34931297	     78.35458794	     49.47235346	     82.21477620	     13.02237977	      7.22916776	     25.33736441	    -12.15448863	     56.64496192	     54.93949199	     59.31175950	     15.05348232	     24.33163768
      0.10344828	     -4.12653813	     -2.12094541	     84.44768457	      0.21225238	      0.82528169	      0.57616976	      6.26047191	     -3.83659395	     -4.91232681	      9.56360779	      0.16691644	     40.62902924	     11.58704659	      0.00000000	      7.05969819	      4.48306516	     13.59214644	      5.41297682	      0.09447427	     36.18289258	    -17.27357929	      0.00000000	      0.33644786	     -0.50541603	      0.72966398	      0.62481733	     -0.67220331	      0.77526798	      0.55275019	     -1.22886853	      0.77526798	      0.38452626	     -1.22886853	      0.63845598	      0.31242549	     -1.03064436	      0.59285199	      0.19224631	     -0.78288942	      0.54724799	      2.40321344	     -5.71736717	      4.05817217	      0.00000000	      0.00000000	     26.59643584	      7.45096763	      3.69137892	     30.78162135	    -10.16692915	     78.20624824	     49.21944790	     82.71546580	     13.37063942	      7.63668175	     25.53280214	    -12.06368165	     56.64895920	     54.68612184	     60.42155277	     15.44755332	     24.47551741
      0.12068966	     -4.19930014	     -2.13136917	     84.66462453	      0.21222133	      0.82507543	      0.57638643	      6.21752531	     -3.89615377	     -4.72387541	      9.62573847	      0.16800083	     40.45386069	     10.87666486	      0.00000000	      7.15791887	      4.59759269	     14.02998877	      5.62862117	      0.09823797	     36.28710371	    -17.52169939	      0.00000000	      0.34314990	     -0.51890272	      0.73659326	      0.63726367	     -0.69014061	      0.78263034	      0.56376096	     -1.26166007	      0.78263034	      0.39218602	     -1.26166007	      0.64451910	      0.31864899	     -1.05814642	      0.59848202	      0.19607585	     -0.80378031	      0.55244494	      2.45108539	     -5.86993131	      4.09671072	      0.00000000	      0.00000000	     26.54905866	      7.25580499	      3.15923468	     30.50547790	    -10.07006809	     77.45326408	     48.99795788	     82.13089407	     13.71976698	      8.54587272	     25.86032794	    -11.91046143	     57.08067935	     54.27162718	     61.90265668	     15.72431462	     24.39210928
      0.13793103	     -4.26197155	     -2.15070130	     85.04269197	      0.21198131	      0.82489602	      0.57667580	      6.25365170	     -4.00710137	     -5.29951995	      9.89429779	      0.17268807	     40.43615922	     10.77984138	      0.00000000	      7.29062060	      4.70809961	     14.44719650	      5.82158721	      0.10160586	     36.38864456	    -17.56139745	      0.00000000	      0.34618045	     -0.53032097	      0.72951586	      0.64289172	     -0.70532689	      0.77511060	      0.56873987	     -1.28942240	      0.77511060	      0.39564964	     -1.28942240	      0.63832638	      0.32146317	     -1.08143052	      0.59273163	      0.19780751	     -0.82146718	      0.54713689	      2.47273236	     -5.99909686	      4.05734835	      0.00000000	      0.00000000	     26.55331486	      6.96703303	      2.66381129	     29.99638858	    -10.01099989	     75.96836272	     48.80746063	     83.42694737	     14.46304644	      9.14222784	     26.26775937	    -11.68982839	     57.72432694	     53.69812092	     64.32719943	     16.20392637	     24.04633402
      0.15517241	     -4.37255132	     -2.18115042	     85.38928591	      0.21184865	      0.82477139	      0.57703910	      6.41305397	     -4.23239582	     -6.49825171	     10.33976490	      0.18046294	     40.63034372	     11.48019351	      0.00000000	      7.47569637	      4.86733205	     14.73216441	      6.00415496	      0.10479227	     36.46449447	    -17.59283285	      0.00000000	      0.34940930	     -0.55112551	      0.74932304	      0.64888802	     -0.73299693	      0.79615573	      0.57404454	     -1.34000657	      0.79615573	      0.39933989	     -1.34000657	      0.65565766	      0.32446148	     -1.12385515	      0.60882497	      0.19965248	     -0.85369342	      0.56199228	      2.49579571	     -6.23444202	      4.16750996	      0.00000000	      0.00000000	     26.54333771	      6.73850113	      2.02436922	     29.19461435	    -10.02027596	     73.99483425	     48.70398227	     83.91113114	     14.47326010	      9.80824657	     26.79066078	    -11.44962338	     58.87995751	     53.07289442	     65.66888999	     16.30651129	     24.41831451
      0.17241379	     -4.50351311	     -2.14852297	     85.56502401	      0.21200329	      0.82488709	      0.57739458	      6.56357061	     -4.41808060	     -7.01842558	     10.77261636	      0.18801762	     40.77941379	     11.54196206	      0.00000000	      7.43594196	      4.98237758	     14.65093828	      5.78090786	      0.10089588	     36.44701633	    -17.35958905	      0.00000000	      0.33856856	     -0.57237328	      0.79006397	      0.62875567	     -0.76125647	      0.83944296	      0.55623428	     -1.39166840	      0.83944296	      0.38695000	     -1.39166840	      0.69130597	      0.31439476	     -1.16718360	      0.64192697	      0.19345807	     -0.88660622	      0.59254797	      2.41836134	     -6.47480106	      4.39409876	      0.00000000	      0.00000000	     26.56461680	      6.59330897	      1.66429672	     28.45600330	    -10.05956781	     72.47103955	     48.55522251	     81.83141699	     13.24173680	      9.83249843	     27.23664941	    -11.27908275	     60.24719316	     52.50385006	     65.62578397	     15.76032856	     25.30814337
